# xmcd CD database file
#
# Track frame offsets:
#	150
#	21957
#	38691
#	59818
#	74005
#	94797
#	109424
#	126873
#	141161
#	160838
#	178272
#	198402
#	209331
#	244364
#
# Disc length: 3509 seconds
#
# Revision: 1
# Processed by: cddbd v1.4PL0 Copyright (c) Steve Scherf et al.
# Submitted via: CDex 1.50beta10
#
DISCID=dd0db30e
DTITLE=Georg Nussbaumer - Homegrown
DYEAR=2003
DGENRE=Blues
TTITLE0=Make you feel my love
TTITLE1=Jolly coppers on parade
TTITLE2=Blue valentines
TTITLE3=Just your fool
TTITLE4=Martha
TTITLE5=Je l'aime a mousis
TTITLE6=In the neighborhood
TTITLE7=No such pain as love
TTITLE8=Unbreakable chain
TTITLE9=San Diego serenade
TTITLE10=Hoochie Coochie Man
TTITLE11=Spanish harlem incident
TTITLE12=Ol' 55
TTITLE13=Jersy girl
EXTD=YEAR: 2003
EXTT0=
EXTT1=
EXTT2=
EXTT3=
EXTT4=
EXTT5=
EXTT6=
EXTT7=
EXTT8=
EXTT9=
EXTT10=
EXTT11=
EXTT12=
EXTT13=
PLAYORDER=
